<svg width="40" height="30" viewBox="0 0 40 30" fill="none" xmlns="http://www.w3.org/2000/svg">
<path d="M25.4777 23.8921C30.9774 23.9162 35.4873 19.8886 35.4488 14.9881C35.4868 9.95372 30.9774 5.92652 25.4777 5.9281H14.4575C8.89192 5.92692 4.38208 9.95372 4.31128 14.9881C4.38208 19.8886 8.89192 23.9158 14.4571 23.8921H25.4777V23.8921Z" fill="#9EA4B0"/>
<path d="M5.01123 14.9881C5.0661 10.2911 9.2693 6.53734 14.4575 6.55315C19.6399 6.53734 23.8435 10.2911 23.9033 14.9885C23.8435 19.5519 19.6399 23.3056 14.4575 23.2673C9.2693 23.3056 5.0661 19.5515 5.01123 14.9881V14.9881Z" fill="white"/>
<path d="M12.3578 9.98975C10.1839 10.8658 8.55289 12.7387 8.50952 14.9882C8.55289 17.1531 10.106 19.06 12.3578 19.8305V9.98975ZM16.5562 19.8309C18.8027 19.0604 20.3554 17.1531 20.4045 14.9886C20.3554 12.6905 18.8022 10.7832 16.5562 9.99014V19.8309Z" fill="#9EA4B0"/>
</svg>
