<svg width="50" height="30" viewBox="0 0 50 30" fill="none" xmlns="http://www.w3.org/2000/svg">
<path fill-rule="evenodd" clip-rule="evenodd" d="M25 26.1175C26.5526 24.7076 27.792 22.9904 28.6388 21.0758C29.4856 19.1613 29.921 17.0917 29.9172 14.9999C29.9211 12.908 29.4856 10.8384 28.6389 8.92386C27.7921 7.00931 26.5526 5.29206 25 3.88224C22.3451 1.47001 18.8232 0 14.9585 0C6.69738 0 0 6.71558 0 14.9999C0 23.2839 6.69738 29.9997 14.9585 29.9997C18.8232 29.9997 22.3454 28.5297 25 26.1175Z" fill="#A7A7A7"/>
<path fill-rule="evenodd" clip-rule="evenodd" d="M35.0417 0C31.1769 0 27.6545 1.47001 25.0002 3.88224C24.4588 4.37458 23.9541 4.90535 23.4899 5.47036H26.5093C26.9239 5.97467 27.3051 6.50525 27.6505 7.05875H22.3495C22.0304 7.57058 21.7424 8.10099 21.4871 8.64713H28.5116C28.7534 9.16404 28.9653 9.69428 29.1463 10.2352H20.8537C20.6798 10.7563 20.5349 11.2865 20.4194 11.8234H29.5809C29.8052 12.8674 29.9181 13.9322 29.9176 14.9999C29.9176 16.6651 29.6461 18.2673 29.1466 19.7642H20.8537C21.0341 20.3053 21.2456 20.8357 21.4871 21.3526H28.5116C28.2568 21.8988 27.9691 22.4292 27.6503 22.941H22.3495C22.6946 23.4945 23.0755 24.025 23.4896 24.5294H26.5093C26.0457 25.0946 25.5414 25.6255 25.0002 26.1178C27.6545 28.53 31.1769 30 35.0417 30C43.3025 30 50.0002 23.2842 50.0002 15.0001C50.0002 6.71558 43.3025 0 35.0417 0Z" fill="#D7D2D3"/>
<path fill-rule="evenodd" clip-rule="evenodd" d="M48.0083 23.3614C48.0083 23.0938 48.2245 22.8767 48.4918 22.8767C48.7585 22.8767 48.9747 23.0938 48.9747 23.3614C48.9747 23.6285 48.7585 23.8455 48.4918 23.8455C48.3632 23.8451 48.24 23.7939 48.1493 23.7031C48.0587 23.6123 48.0079 23.4894 48.0083 23.3614V23.3614ZM48.4915 23.729C48.6941 23.729 48.8584 23.5649 48.8584 23.3611C48.8584 23.1574 48.6941 22.9927 48.4915 22.9927C48.2884 22.9927 48.124 23.1574 48.124 23.3611C48.124 23.5649 48.2887 23.729 48.4915 23.729ZM48.4263 23.5737H48.3271V23.1475H48.5067C48.5439 23.1475 48.5818 23.1486 48.6147 23.1693C48.6318 23.1813 48.6456 23.1973 48.6551 23.2158C48.6645 23.2344 48.6693 23.2549 48.669 23.2757C48.669 23.3236 48.6409 23.3688 48.5955 23.3859L48.6738 23.5734H48.5637L48.499 23.405H48.4266V23.5737V23.3327H48.4813C48.5011 23.3327 48.5236 23.3337 48.5415 23.3239C48.5494 23.3184 48.5559 23.3111 48.5603 23.3026C48.5647 23.294 48.5668 23.2845 48.5666 23.2749C48.5663 23.2664 48.5639 23.258 48.5597 23.2505C48.5556 23.243 48.5497 23.2366 48.5425 23.2318C48.5254 23.2215 48.4976 23.2241 48.4789 23.2241H48.4268V23.5737H48.4263Z" fill="#D7D2D3"/>
<path fill-rule="evenodd" clip-rule="evenodd" d="M44.845 18.2509C44.845 17.9832 45.0612 17.7662 45.3279 17.7662C45.5946 17.7662 45.8108 17.9832 45.8108 18.2509C45.8108 18.5185 45.5946 18.735 45.3279 18.735C45.0612 18.735 44.845 18.5182 44.845 18.2509ZM45.3276 18.6185C45.5302 18.6185 45.6946 18.4538 45.6946 18.2506C45.6946 18.0468 45.5302 17.8822 45.3276 17.8822C45.1245 17.8822 44.9607 18.0468 44.9607 18.2506C44.9607 18.4538 45.1248 18.6185 45.3276 18.6185ZM45.2624 18.4631H45.1633V18.0375H45.3428C45.38 18.0375 45.4185 18.038 45.4508 18.0593C45.4679 18.0712 45.4817 18.0871 45.4912 18.1055C45.5007 18.124 45.5054 18.1445 45.5051 18.1652C45.5051 18.2136 45.4773 18.2583 45.4316 18.2753L45.5099 18.4629H45.4003L45.3351 18.2945H45.2627V18.4631V18.2221H45.3175C45.3378 18.2221 45.3602 18.2237 45.3776 18.2139C45.3855 18.2084 45.3918 18.201 45.3962 18.1925C45.4006 18.184 45.4028 18.1745 45.4027 18.1649C45.4025 18.1563 45.4003 18.1478 45.3961 18.1402C45.3919 18.1326 45.3859 18.1261 45.3787 18.1213C45.3616 18.1115 45.3338 18.1136 45.3156 18.1136H45.2629V18.4631H45.2624ZM13.0898 18.735H11.2282L12.3346 12.889L9.78712 18.735H8.08953L7.77924 12.9225L6.66934 18.735H4.97949L6.42347 11.1304H9.32851L9.48219 15.8384L11.5304 11.1304H14.5576L13.0898 18.735V18.735ZM33.8958 18.6592C33.3864 18.7994 32.9882 18.8598 32.558 18.8598C31.6055 18.8598 31.0854 18.3807 31.0854 17.5018C31.0854 17.3278 31.1046 17.1426 31.1402 16.9468L31.2535 16.3422L31.3406 15.8527L32.2036 11.1301H34.0551L33.7868 12.5504H34.7369L34.4817 14.0539H33.5276L33.0369 16.6343C33.0187 16.7186 33.008 16.8043 33.0051 16.8904C33.0051 17.2099 33.1978 17.3488 33.6403 17.3488C33.8523 17.3488 34.0166 17.3296 34.1425 17.2911L33.8958 18.6592ZM39.3334 12.6012C39.1773 12.5395 39.1407 12.5395 39.1225 12.5344C39.0239 12.5126 38.9712 12.4998 38.9622 12.4982C38.9003 12.4875 38.8376 12.4823 38.7748 12.4828C38.1636 12.4828 37.7229 12.7558 37.1531 13.487L37.3175 12.5499H35.6314L34.4966 18.7347H36.3596C37.0262 14.9523 37.3116 14.2899 38.2053 14.2899C38.2726 14.2899 38.3504 14.2952 38.4407 14.3056L38.6583 14.35L39.3334 12.6012V12.6012ZM26.5156 14.5043C26.5156 15.2856 26.9547 15.8237 27.95 16.2281C28.7127 16.5388 28.8306 16.6297 28.8306 16.9107C28.8306 17.2956 28.4944 17.4693 27.7495 17.4693C27.1872 17.4693 26.6647 17.3935 26.0615 17.2246L25.8031 18.6512L25.8865 18.6653L26.2315 18.7286C26.3427 18.7478 26.5065 18.7661 26.7238 18.7826C27.1717 18.8175 27.5183 18.834 27.7626 18.834C29.7499 18.834 30.6679 18.1809 30.6679 16.7702C30.6679 15.9213 30.2842 15.4236 29.3405 15.0488C28.5508 14.7357 28.4594 14.6663 28.4594 14.3777C28.4594 14.0443 28.7726 13.873 29.3811 13.873C29.7513 13.873 30.2558 13.9079 30.7345 13.9659L31.0028 12.5342C30.5153 12.4677 29.7756 12.4131 29.3456 12.4131C27.2385 12.4134 26.5092 13.3636 26.5156 14.5043V14.5043ZM19.1421 18.735H17.5949L17.631 18.0939C17.1599 18.6015 16.5318 18.8419 15.6782 18.8419C14.6693 18.8419 13.9769 18.153 13.9769 17.1527C13.9769 15.646 15.1798 14.7679 17.2472 14.7679C17.4592 14.7679 17.7283 14.7847 18.0057 14.8155C18.0634 14.6123 18.0792 14.5245 18.0792 14.4138C18.0792 14.0044 17.7545 13.8512 16.8851 13.8512C16.3536 13.8512 15.7528 13.9182 15.338 14.0236L15.0801 14.0893L14.9131 14.1292L15.1712 12.7387C16.0994 12.5004 16.7119 12.4102 17.4001 12.4102C19.0002 12.4102 19.8458 13.0385 19.8458 14.2244C19.8458 14.5295 19.8177 14.7613 19.6945 15.4497L19.3054 17.6438L19.2399 18.0375L19.1923 18.3519L19.1605 18.5671L19.1421 18.735V18.735ZM17.7839 15.9796C17.6459 15.9625 17.5069 15.954 17.3678 15.9541C16.3127 15.9541 15.7782 16.2704 15.7782 16.895C15.7782 17.2799 16.039 17.5257 16.446 17.5257C17.205 17.526 17.7518 16.8942 17.7839 15.9796ZM25.2496 18.6015C24.6278 18.7694 23.9863 18.8538 23.342 18.8523C21.2606 18.8507 20.1758 17.9005 20.1758 16.0815C20.1758 13.9584 21.5559 12.3953 23.4294 12.3953C24.9621 12.3953 25.9408 13.2708 25.9408 14.6434C25.9408 15.0991 25.8739 15.5433 25.7122 16.1703H22.0105C21.9992 16.2345 21.9932 16.2994 21.9926 16.3645C21.9926 17.0814 22.5445 17.4472 23.6258 17.4472C24.2907 17.4472 24.8918 17.3262 25.5591 17.0559L25.2496 18.6015ZM24.2581 14.9214C24.2683 14.7926 24.2736 14.6873 24.2736 14.6059C24.2736 14.1037 23.9473 13.8089 23.393 13.8089C22.8008 13.8089 22.3772 14.2042 22.2053 14.9177L24.2581 14.9214ZM45.1205 15.9309C44.8417 17.9883 43.409 18.9007 41.5043 18.9007C39.3981 18.9007 38.5474 17.6196 38.5474 16.0498C38.5474 13.8579 39.9881 12.3727 42.2133 12.3727C44.1447 12.3727 45.1702 13.594 45.1702 15.164C45.1702 15.546 45.1697 15.5713 45.1205 15.9309ZM43.2032 15.1395C43.2032 14.4926 42.9413 13.8818 42.178 13.8818C41.2279 13.8818 40.6392 15.0078 40.6392 16.002C40.6392 16.8404 41.0427 17.4039 41.7082 17.3919C42.1117 17.3919 42.9723 16.8407 43.1425 15.878C43.1824 15.6535 43.2032 15.4071 43.2032 15.1395V15.1395Z" fill="white"/>
</svg>
